<svg width="97" height="31" viewBox="0 0 97 31" fill="none" xmlns="http://www.w3.org/2000/svg">
<path d="M12.9163 30.0098C10.5963 30.0098 8.32962 29.7564 6.11629 29.2498C3.92962 28.7164 2.12962 28.0098 0.716289 27.1298L3.75629 20.2498C5.08962 21.0231 6.58296 21.6498 8.23629 22.1298C9.88962 22.5831 11.4763 22.8098 12.9963 22.8098C14.303 22.8098 15.2363 22.6898 15.7963 22.4498C16.3563 22.1831 16.6363 21.7964 16.6363 21.2898C16.6363 20.7031 16.263 20.2631 15.5163 19.9698C14.7963 19.6764 13.5963 19.3564 11.9163 19.0098C9.75629 18.5564 7.95629 18.0764 6.51629 17.5698C5.07629 17.0364 3.82296 16.1831 2.75629 15.0097C1.68962 13.8098 1.15629 12.1964 1.15629 10.1698C1.15629 8.40975 1.64962 6.80975 2.63629 5.36975C3.62296 3.92975 5.08962 2.79642 7.03629 1.96975C9.00962 1.14308 11.3963 0.72975 14.1963 0.72975C16.1163 0.72975 17.9963 0.943083 19.8363 1.36975C21.703 1.76975 23.343 2.36975 24.7563 3.16975L21.9163 10.0097C19.1696 8.62308 16.5696 7.92975 14.1163 7.92975C11.6896 7.92975 10.4763 8.51642 10.4763 9.68975C10.4763 10.2498 10.8363 10.6764 11.5563 10.9698C12.2763 11.2364 13.463 11.5298 15.1163 11.8498C17.2496 12.2498 19.0496 12.7164 20.5163 13.2497C21.983 13.7564 23.2496 14.5964 24.3163 15.7698C25.4096 16.9431 25.9563 18.5431 25.9563 20.5698C25.9563 22.3298 25.463 23.9298 24.4763 25.3698C23.4896 26.7831 22.0096 27.9164 20.0363 28.7698C18.0896 29.5964 15.7163 30.0098 12.9163 30.0098Z" fill="#E3390E"/>
<path d="M42.3254 30.0098C39.472 30.0098 36.9654 29.4898 34.8054 28.4498C32.672 27.3831 31.0187 25.9031 29.8454 24.0098C28.6987 22.1164 28.1254 19.9431 28.1254 17.4898C28.1254 14.2364 28.872 11.3431 30.3654 8.80975C31.8854 6.24975 33.9787 4.26308 36.6454 2.84975C39.3387 1.43642 42.3787 0.72975 45.7654 0.72975C48.6187 0.72975 51.112 1.26308 53.2454 2.32975C55.4054 3.36975 57.0587 4.83642 58.2054 6.72975C59.3787 8.62308 59.9654 10.7964 59.9654 13.2497C59.9654 16.5031 59.2054 19.4098 57.6854 21.9698C56.192 24.5031 54.0987 26.4764 51.4054 27.8898C48.7387 29.3031 45.712 30.0098 42.3254 30.0098ZM43.1254 22.3698C44.6187 22.3698 45.912 21.9831 47.0054 21.2098C48.1254 20.4364 48.9787 19.3964 49.5654 18.0898C50.152 16.7831 50.4454 15.3564 50.4454 13.8097C50.4454 12.1564 49.952 10.8364 48.9654 9.84975C48.0054 8.86308 46.672 8.36975 44.9654 8.36975C43.472 8.36975 42.1654 8.75642 41.0454 9.52975C39.952 10.3031 39.112 11.3431 38.5254 12.6498C37.9387 13.9564 37.6454 15.3831 37.6454 16.9298C37.6454 18.5831 38.1254 19.9031 39.0854 20.8898C40.072 21.8764 41.4187 22.3698 43.1254 22.3698Z" fill="#42B1BA"/>
<path d="M87.6716 29.3698L87.5916 16.6098L81.5116 26.8498H77.3516L71.2716 17.0497V29.3698H62.6716V1.36975H70.4316L79.5516 16.2898L88.4316 1.36975H96.1916L96.2716 29.3698H87.6716Z" fill="#3E4B66"/>
</svg>
