<svg width="73" height="23" viewBox="0 0 73 23" fill="none" xmlns="http://www.w3.org/2000/svg">
<path d="M9.93258 22.0923C8.19258 22.0923 6.49258 21.9023 4.83258 21.5223C3.19258 21.1223 1.84258 20.5923 0.782578 19.9323L3.06258 14.7723C4.06258 15.3523 5.18258 15.8223 6.42258 16.1823C7.66258 16.5223 8.85258 16.6923 9.99258 16.6923C10.9726 16.6923 11.6726 16.6023 12.0926 16.4223C12.5126 16.2223 12.7226 15.9323 12.7226 15.5523C12.7226 15.1123 12.4426 14.7823 11.8826 14.5623C11.3426 14.3423 10.4426 14.1023 9.18258 13.8423C7.56258 13.5023 6.21258 13.1423 5.13258 12.7623C4.05258 12.3623 3.11258 11.7223 2.31258 10.8423C1.51258 9.9423 1.11258 8.7323 1.11258 7.2123C1.11258 5.8923 1.48258 4.6923 2.22258 3.6123C2.96258 2.5323 4.06258 1.6823 5.52258 1.0623C7.00258 0.442304 8.79258 0.132304 10.8926 0.132304C12.3326 0.132304 13.7426 0.292304 15.1226 0.612303C16.5226 0.912303 17.7526 1.3623 18.8126 1.9623L16.6826 7.0923C14.6226 6.0523 12.6726 5.5323 10.8326 5.5323C9.01258 5.5323 8.10258 5.9723 8.10258 6.8523C8.10258 7.2723 8.37258 7.5923 8.91258 7.8123C9.45258 8.0123 10.3426 8.2323 11.5826 8.4723C13.1826 8.7723 14.5326 9.1223 15.6326 9.5223C16.7326 9.9023 17.6826 10.5323 18.4826 11.4123C19.3026 12.2923 19.7126 13.4923 19.7126 15.0123C19.7126 16.3323 19.3426 17.5323 18.6026 18.6123C17.8626 19.6723 16.7526 20.5223 15.2726 21.1623C13.8126 21.7823 12.0326 22.0923 9.93258 22.0923Z" fill="#E3390E"/>
<path d="M31.9894 22.0923C29.8494 22.0923 27.9694 21.7023 26.3494 20.9223C24.7494 20.1223 23.5094 19.0123 22.6294 17.5923C21.7694 16.1723 21.3394 14.5423 21.3394 12.7023C21.3394 10.2623 21.8994 8.0923 23.0194 6.1923C24.1594 4.2723 25.7294 2.7823 27.7294 1.7223C29.7494 0.662304 32.0294 0.132304 34.5694 0.132304C36.7094 0.132304 38.5794 0.532304 40.1794 1.3323C41.7994 2.1123 43.0394 3.2123 43.8994 4.6323C44.7794 6.0523 45.2194 7.6823 45.2194 9.5223C45.2194 11.9623 44.6494 14.1423 43.5094 16.0623C42.3894 17.9623 40.8194 19.4423 38.7994 20.5023C36.7994 21.5623 34.5294 22.0923 31.9894 22.0923ZM32.5894 16.3623C33.7094 16.3623 34.6794 16.0723 35.4994 15.4923C36.3394 14.9123 36.9794 14.1323 37.4194 13.1523C37.8594 12.1723 38.0794 11.1023 38.0794 9.9423C38.0794 8.7023 37.7094 7.7123 36.9694 6.9723C36.2494 6.2323 35.2494 5.8623 33.9694 5.8623C32.8494 5.8623 31.8694 6.1523 31.0294 6.7323C30.2094 7.3123 29.5794 8.0923 29.1394 9.0723C28.6994 10.0523 28.4794 11.1223 28.4794 12.2823C28.4794 13.5223 28.8394 14.5123 29.5594 15.2523C30.2994 15.9923 31.3094 16.3623 32.5894 16.3623Z" fill="#42B1BA"/>
<path d="M65.9991 21.6123L65.9391 12.0423L61.3791 19.7223H58.2591L53.6991 12.3723V21.6123H47.2491V0.612303H53.0691L59.9091 11.8023L66.5691 0.612303H72.3891L72.4491 21.6123H65.9991Z" fill="white"/>
</svg>
